<mxfile host="app.diagrams.net" modified="2023-10-02T06:52:12.117Z" agent="Mozilla/5.0 (Windows NT 10.0; Win64; x64) AppleWebKit/537.36 (KHTML, like Gecko) Chrome/116.0.0.0 Safari/537.36 OPR/102.0.0.0 (Edition Campaign 34)" etag="G2CyBri4suybmK975jxu" version="22.0.0" type="device">
  <diagram id="wFE0QG_FPsp0jaGvCLVb" name="Page-1">
    <mxGraphModel dx="996" dy="533" grid="1" gridSize="10" guides="1" tooltips="1" connect="1" arrows="1" fold="1" page="1" pageScale="1" pageWidth="850" pageHeight="1100" math="0" shadow="0">
      <root>
        <mxCell id="0" />
        <mxCell id="1" parent="0" />
        <mxCell id="_5mSTuPxr-ZiKRkBDSY7-1" value="" style="swimlane;fontStyle=2;childLayout=stackLayout;horizontal=1;startSize=28;horizontalStack=1;resizeParent=1;resizeParentMax=0;resizeLast=0;collapsible=0;marginBottom=0;swimlaneFillColor=none;fontFamily=Permanent Marker;fontSize=16;points=[];verticalAlign=top;stackBorder=0;resizable=1;strokeWidth=2;sketch=1;disableMultiStroke=1;movable=1;rotatable=1;deletable=1;editable=1;locked=0;connectable=1;" parent="1" vertex="1">
          <mxGeometry x="160" y="80" width="540" height="610" as="geometry" />
        </mxCell>
        <object label="TO DO" status="New" id="_5mSTuPxr-ZiKRkBDSY7-2">
          <mxCell style="swimlane;strokeWidth=2;fontFamily=Permanent Marker;html=0;startSize=1;verticalAlign=bottom;spacingBottom=5;points=[];childLayout=stackLayout;stackBorder=20;stackSpacing=20;resizeLast=0;resizeParent=1;horizontalStack=0;collapsible=0;sketch=1;strokeColor=none;fillStyle=solid;fillColor=#B3FF66;" parent="_5mSTuPxr-ZiKRkBDSY7-1" vertex="1">
            <mxGeometry y="28" width="180" height="582" as="geometry" />
          </mxCell>
        </object>
        <object label="Зарегистрировать Бота в Телеграмме" placeholders="1" id="jLu0HmadRDbhIfsWTWsk-7">
          <mxCell style="whiteSpace=wrap;html=1;strokeWidth=2;fillColor=#d0cee2;fontStyle=1;spacingTop=0;rounded=1;arcSize=9;points=[];sketch=1;fontFamily=Permanent Marker;hachureGap=8;fillWeight=1;strokeColor=#56517e;" vertex="1" parent="_5mSTuPxr-ZiKRkBDSY7-2">
            <mxGeometry x="20" y="21" width="140" height="80" as="geometry" />
          </mxCell>
        </object>
        <object label="Добавить функцию Новое Слово" placeholders="1" id="jLu0HmadRDbhIfsWTWsk-12">
          <mxCell style="whiteSpace=wrap;html=1;strokeWidth=2;fillColor=#d0cee2;fontStyle=1;spacingTop=0;rounded=1;arcSize=9;points=[];sketch=1;fontFamily=Permanent Marker;hachureGap=8;fillWeight=1;strokeColor=#56517e;" vertex="1" parent="_5mSTuPxr-ZiKRkBDSY7-2">
            <mxGeometry x="20" y="121" width="140" height="80" as="geometry" />
          </mxCell>
        </object>
        <object label="Добавить функцию Своё Слово" placeholders="1" id="jLu0HmadRDbhIfsWTWsk-13">
          <mxCell style="whiteSpace=wrap;html=1;strokeWidth=2;fillColor=#d0cee2;fontStyle=1;spacingTop=0;rounded=1;arcSize=9;points=[];sketch=1;fontFamily=Permanent Marker;hachureGap=8;fillWeight=1;strokeColor=#56517e;" vertex="1" parent="_5mSTuPxr-ZiKRkBDSY7-2">
            <mxGeometry x="20" y="221" width="140" height="80" as="geometry" />
          </mxCell>
        </object>
        <object label="Добавить функцию Квиз-теста" placeholders="1" id="jLu0HmadRDbhIfsWTWsk-15">
          <mxCell style="whiteSpace=wrap;html=1;strokeWidth=2;fillColor=#d0cee2;fontStyle=1;spacingTop=0;rounded=1;arcSize=9;points=[];sketch=1;fontFamily=Permanent Marker;hachureGap=8;fillWeight=1;strokeColor=#56517e;" vertex="1" parent="_5mSTuPxr-ZiKRkBDSY7-2">
            <mxGeometry x="20" y="321" width="140" height="80" as="geometry" />
          </mxCell>
        </object>
        <object label="Добавить функцию Слово дня" placeholders="1" id="jLu0HmadRDbhIfsWTWsk-16">
          <mxCell style="whiteSpace=wrap;html=1;strokeWidth=2;fillColor=#d0cee2;fontStyle=1;spacingTop=0;rounded=1;arcSize=9;points=[];sketch=1;fontFamily=Permanent Marker;hachureGap=8;fillWeight=1;strokeColor=#56517e;" vertex="1" parent="_5mSTuPxr-ZiKRkBDSY7-2">
            <mxGeometry x="20" y="421" width="140" height="80" as="geometry" />
          </mxCell>
        </object>
        <object label="DOING" status="In progress" id="_5mSTuPxr-ZiKRkBDSY7-6">
          <mxCell style="swimlane;strokeWidth=2;fontFamily=Permanent Marker;html=0;startSize=1;verticalAlign=bottom;spacingBottom=5;points=[];childLayout=stackLayout;stackBorder=20;stackSpacing=20;resizeLast=0;resizeParent=1;horizontalStack=0;collapsible=0;sketch=1;strokeColor=none;fillStyle=solid;fillColor=#006600;" parent="_5mSTuPxr-ZiKRkBDSY7-1" vertex="1">
            <mxGeometry x="180" y="28" width="180" height="582" as="geometry" />
          </mxCell>
        </object>
        <object label="Разработка БД для телеграмм-бота" placeholders="1" id="_5mSTuPxr-ZiKRkBDSY7-7">
          <mxCell style="whiteSpace=wrap;html=1;strokeWidth=2;fillColor=#cdeb8b;fontStyle=1;spacingTop=0;rounded=1;arcSize=9;points=[];sketch=1;fontFamily=Permanent Marker;hachureGap=8;fillWeight=1;strokeColor=#36393d;" parent="_5mSTuPxr-ZiKRkBDSY7-6" vertex="1">
            <mxGeometry x="20" y="21" width="140" height="80" as="geometry" />
          </mxCell>
        </object>
        <object label="DONE" status="Completed" id="_5mSTuPxr-ZiKRkBDSY7-9">
          <mxCell style="swimlane;strokeWidth=2;fontFamily=Permanent Marker;html=0;startSize=1;verticalAlign=bottom;spacingBottom=5;points=[];childLayout=stackLayout;stackBorder=20;stackSpacing=20;resizeLast=0;resizeParent=1;horizontalStack=0;collapsible=0;sketch=1;strokeColor=none;fillStyle=solid;fillColor=#1BA1E2;" parent="_5mSTuPxr-ZiKRkBDSY7-1" vertex="1">
            <mxGeometry x="360" y="28" width="180" height="582" as="geometry" />
          </mxCell>
        </object>
        <object label="Определить технические требования" placeholders="1" id="jLu0HmadRDbhIfsWTWsk-10">
          <mxCell style="whiteSpace=wrap;html=1;strokeWidth=2;fillColor=#cce5ff;fontStyle=1;spacingTop=0;rounded=1;arcSize=9;points=[];sketch=1;fontFamily=Permanent Marker;hachureGap=8;fillWeight=1;strokeColor=#36393d;" vertex="1" parent="_5mSTuPxr-ZiKRkBDSY7-9">
            <mxGeometry x="20" y="21" width="140" height="80" as="geometry" />
          </mxCell>
        </object>
        <object label="Интервью с пользователями" placeholders="1" id="jLu0HmadRDbhIfsWTWsk-11">
          <mxCell style="whiteSpace=wrap;html=1;strokeWidth=2;fillColor=#cce5ff;fontStyle=1;spacingTop=0;rounded=1;arcSize=9;points=[];sketch=1;fontFamily=Permanent Marker;hachureGap=8;fillWeight=1;strokeColor=#36393d;" vertex="1" parent="_5mSTuPxr-ZiKRkBDSY7-9">
            <mxGeometry x="20" y="121" width="140" height="80" as="geometry" />
          </mxCell>
        </object>
        <object label="Создание диаграммы последовательности" placeholders="1" id="jLu0HmadRDbhIfsWTWsk-17">
          <mxCell style="whiteSpace=wrap;html=1;strokeWidth=2;fillColor=#cce5ff;fontStyle=1;spacingTop=0;rounded=1;arcSize=9;points=[];sketch=1;fontFamily=Permanent Marker;hachureGap=8;fillWeight=1;strokeColor=#36393d;" vertex="1" parent="_5mSTuPxr-ZiKRkBDSY7-9">
            <mxGeometry x="20" y="221" width="140" height="80" as="geometry" />
          </mxCell>
        </object>
        <object label="Создание диаграммы последовательности" placeholders="1" id="jLu0HmadRDbhIfsWTWsk-18">
          <mxCell style="whiteSpace=wrap;html=1;strokeWidth=2;fillColor=#cce5ff;fontStyle=1;spacingTop=0;rounded=1;arcSize=9;points=[];sketch=1;fontFamily=Permanent Marker;hachureGap=8;fillWeight=1;strokeColor=#36393d;" vertex="1" parent="_5mSTuPxr-ZiKRkBDSY7-9">
            <mxGeometry x="20" y="321" width="140" height="80" as="geometry" />
          </mxCell>
        </object>
      </root>
    </mxGraphModel>
  </diagram>
</mxfile>
